<svg width="18" height="18" viewBox="0 0 18 18" fill="none" xmlns="http://www.w3.org/2000/svg">
<path fill-rule="evenodd" clip-rule="evenodd" d="M8.12771 8.74975e-05C9.2064 0.00689312 10.3999 0.434797 11.5305 1.56538C11.7985 1.83335 12.0282 2.14811 12.126 2.52072C12.2239 2.89038 12.1722 3.28371 11.9822 3.61558C11.8257 3.89716 11.5977 4.11154 11.4055 4.26892C10.9529 4.63982 10.4144 4.90524 9.99925 5.32039C9.7705 5.54444 9.6075 5.82689 9.52796 6.13706C10.1549 5.49138 10.9469 4.86951 11.8155 4.49265C12.5071 4.19235 13.3 4.02647 14.1133 4.1915C14.9435 4.35909 15.6922 4.84995 16.3115 5.67513C16.7096 6.20682 17.1009 7.07879 17.0941 8.12771C17.0873 9.2064 16.6603 10.3999 15.5288 11.5305C15.2609 11.7985 14.9469 12.0282 14.5735 12.126C14.2038 12.2239 13.8105 12.1722 13.4786 11.9822C13.197 11.8257 12.9827 11.5977 12.8253 11.4055C12.4552 10.9529 12.189 10.4144 11.7738 9.99925C11.5498 9.77046 11.2673 9.60746 10.9571 9.52796C11.6028 10.1549 12.2247 10.9469 12.6016 11.8155C12.9019 12.5071 13.0677 13.3 12.9036 14.1133C12.7351 14.9435 12.2443 15.6922 11.4191 16.3115C10.8874 16.7096 10.0154 17.1009 8.9665 17.0941C7.88781 17.0873 6.69427 16.6603 5.56369 15.5288C5.29572 15.2609 5.06603 14.9469 4.96819 14.5735C4.87061 14.2037 4.92257 13.8104 5.11281 13.4786C5.26849 13.197 5.49648 12.9827 5.68874 12.8253C6.14131 12.4552 6.67981 12.189 7.09495 11.7738C7.32402 11.5499 7.48732 11.2674 7.56709 10.9571C6.93927 11.6028 6.14642 12.2247 5.2787 12.6016C4.58708 12.9019 3.79422 13.0677 2.98095 12.9036C2.15067 12.7351 1.40205 12.2443 0.782734 11.4191C0.384605 10.8874 -0.00671813 10.0154 8.74975e-05 8.9665C0.00689312 7.88781 0.434797 6.69427 1.56538 5.56369C1.83335 5.29572 2.14811 5.06603 2.52072 4.96819C2.89049 4.87061 3.28382 4.92257 3.61558 5.11281C3.89716 5.26849 4.11154 5.49648 4.26892 5.68874C4.63982 6.14131 4.90524 6.67981 5.32039 7.09495C5.53646 7.31103 5.81294 7.48713 6.13706 7.56709C5.49138 6.93927 4.86951 6.14642 4.49265 5.2787C4.19235 4.58708 4.02647 3.79422 4.1915 2.98095C4.35909 2.15067 4.84995 1.40205 5.67513 0.782734C6.20682 0.384605 7.07879 -0.00671813 8.12771 8.74975e-05ZM6.76318 9.30678C5.68279 9.38675 4.74276 8.92396 4.11749 8.29785C3.78912 7.96948 3.5237 7.57985 3.32123 7.28211C3.20537 7.10494 3.0822 6.93267 2.95203 6.76573C2.86951 6.66535 2.86015 6.6747 2.76828 6.76658C1.93118 7.60367 1.7049 8.37781 1.70149 8.97841C1.69681 9.4863 1.85152 9.98288 2.14386 10.3982C2.5539 10.9435 2.95883 11.163 3.31783 11.2353C3.69299 11.3119 4.1243 11.2481 4.60239 11.0405C5.41907 10.6866 6.21362 9.97799 6.76318 9.30678ZM9.30678 10.331C9.38675 11.4114 8.92396 12.3514 8.29785 12.9767C7.96948 13.3051 7.57985 13.5705 7.28211 13.773C7.10771 13.8921 6.92992 14.0078 6.76573 14.1422C6.66535 14.2247 6.6747 14.2341 6.76658 14.3259C7.60367 15.163 8.37866 15.3893 8.97841 15.3927C9.4863 15.3974 9.98288 15.2427 10.3982 14.9503C10.9435 14.5403 11.163 14.1354 11.2353 13.7764C11.3119 13.4012 11.2481 12.9699 11.0405 12.4918C10.6866 11.6751 9.97799 10.8814 9.30678 10.331ZM10.331 7.78743C11.4114 7.70746 12.3514 8.17024 12.9767 8.79636C13.4361 9.25574 13.7338 9.82996 14.1422 10.3276C14.2247 10.4297 14.2341 10.4195 14.3259 10.3276C15.163 9.49053 15.3893 8.71639 15.3927 8.1158C15.397 7.48798 15.1571 6.9716 14.9503 6.69597C14.5403 6.15067 14.1354 5.93119 13.7764 5.85888C13.4012 5.78232 12.9699 5.84612 12.4918 6.05369C11.6751 6.40758 10.8814 7.11622 10.331 7.78743ZM7.78743 6.76318C7.70746 5.68279 8.17024 4.74276 8.79636 4.11749C9.13409 3.77976 9.53647 3.50924 9.83762 3.30422C10.0061 3.19382 10.1699 3.07632 10.3285 2.95203C10.4289 2.86951 10.4195 2.86015 10.3276 2.76828C9.49053 1.93118 8.71639 1.7049 8.1158 1.70149C7.6079 1.69681 7.11133 1.85152 6.69597 2.14386C6.15067 2.5539 5.93119 2.95883 5.85888 3.31783C5.78232 3.69299 5.84612 4.1243 6.05369 4.60239C6.40758 5.41907 7.11622 6.21362 7.78743 6.76318Z" fill="black"/>
</svg>
