<svg width="10" height="10" viewBox="0 0 10 10" fill="none" xmlns="http://www.w3.org/2000/svg">
<path d="M6.07143 3.57143H3.92857C3.83385 3.57143 3.74301 3.60906 3.67603 3.67603C3.60906 3.74301 3.57143 3.83385 3.57143 3.92857V6.07143C3.57143 6.16615 3.60906 6.25699 3.67603 6.32397C3.74301 6.39094 3.83385 6.42857 3.92857 6.42857H6.07143C6.16615 6.42857 6.25699 6.39094 6.32397 6.32397C6.39094 6.25699 6.42857 6.16615 6.42857 6.07143V3.92857C6.42857 3.83385 6.39094 3.74301 6.32397 3.67603C6.25699 3.60906 6.16615 3.57143 6.07143 3.57143ZM5.71429 5.71429H4.28571V4.28571H5.71429V5.71429ZM9.64286 5.71429H8.92857V4.28571H9.64286C9.73758 4.28571 9.82842 4.24809 9.8954 4.18111C9.96237 4.11413 10 4.02329 10 3.92857C10 3.83385 9.96237 3.74301 9.8954 3.67603C9.82842 3.60906 9.73758 3.57143 9.64286 3.57143H8.92857V1.78571C8.92857 1.59627 8.85332 1.41459 8.71936 1.28064C8.58541 1.14668 8.40373 1.07143 8.21429 1.07143H6.42857V0.357143C6.42857 0.262423 6.39094 0.171582 6.32397 0.104605C6.25699 0.0376274 6.16615 0 6.07143 0C5.97671 0 5.88587 0.0376274 5.81889 0.104605C5.75191 0.171582 5.71429 0.262423 5.71429 0.357143V1.07143H4.28571V0.357143C4.28571 0.262423 4.24809 0.171582 4.18111 0.104605C4.11413 0.0376274 4.02329 0 3.92857 0C3.83385 0 3.74301 0.0376274 3.67603 0.104605C3.60906 0.171582 3.57143 0.262423 3.57143 0.357143V1.07143H1.78571C1.59627 1.07143 1.41459 1.14668 1.28064 1.28064C1.14668 1.41459 1.07143 1.59627 1.07143 1.78571V3.57143H0.357143C0.262423 3.57143 0.171582 3.60906 0.104605 3.67603C0.0376274 3.74301 0 3.83385 0 3.92857C0 4.02329 0.0376274 4.11413 0.104605 4.18111C0.171582 4.24809 0.262423 4.28571 0.357143 4.28571H1.07143V5.71429H0.357143C0.262423 5.71429 0.171582 5.75191 0.104605 5.81889C0.0376274 5.88587 0 5.97671 0 6.07143C0 6.16615 0.0376274 6.25699 0.104605 6.32397C0.171582 6.39094 0.262423 6.42857 0.357143 6.42857H1.07143V8.21429C1.07143 8.40373 1.14668 8.58541 1.28064 8.71936C1.41459 8.85332 1.59627 8.92857 1.78571 8.92857H3.57143V9.64286C3.57143 9.73758 3.60906 9.82842 3.67603 9.8954C3.74301 9.96237 3.83385 10 3.92857 10C4.02329 10 4.11413 9.96237 4.18111 9.8954C4.24809 9.82842 4.28571 9.73758 4.28571 9.64286V8.92857H5.71429V9.64286C5.71429 9.73758 5.75191 9.82842 5.81889 9.8954C5.88587 9.96237 5.97671 10 6.07143 10C6.16615 10 6.25699 9.96237 6.32397 9.8954C6.39094 9.82842 6.42857 9.73758 6.42857 9.64286V8.92857H8.21429C8.40373 8.92857 8.58541 8.85332 8.71936 8.71936C8.85332 8.58541 8.92857 8.40373 8.92857 8.21429V6.42857H9.64286C9.73758 6.42857 9.82842 6.39094 9.8954 6.32397C9.96237 6.25699 10 6.16615 10 6.07143C10 5.97671 9.96237 5.88587 9.8954 5.81889C9.82842 5.75191 9.73758 5.71429 9.64286 5.71429ZM8.21429 8.21429H1.78571V1.78571H8.21429V8.21429Z" fill="black"/>
</svg>
