<svg width="18" height="12" viewBox="0 0 18 12" fill="none" xmlns="http://www.w3.org/2000/svg">
<path d="M2 1C1.44772 1 1 1.44772 1 2V9.5C1 9.77614 1.22386 10 1.5 10V10C1.77614 10 2 10.2239 2 10.5V10.5C2 10.7761 2.22386 11 2.5 11H8.5C8.77614 11 9 10.7761 9 10.5V10.5C9 10.2239 9.22386 10 9.5 10H16C16.5523 10 17 9.55228 17 9V2C17 1.44772 16.5523 1 16 1H2ZM12.5 3C13.163 3 13.7989 3.26339 14.2678 3.73223C14.7366 4.20107 15 4.83696 15 5.5C15 6.16304 14.7366 6.79893 14.2678 7.26777C13.7989 7.73661 13.163 8 12.5 8C11.837 8 11.2011 7.73661 10.7322 7.26777C10.2634 6.79893 10 6.16304 10 5.5C10 4.83696 10.2634 4.20107 10.7322 3.73223C11.2011 3.26339 11.837 3 12.5 3Z" stroke="black" stroke-width="1.3"/>
</svg>
