<svg width="12" height="16" viewBox="0 0 12 16" fill="none" xmlns="http://www.w3.org/2000/svg">
<path d="M10 2.5C10 2.63261 9.94732 2.75979 9.85355 2.85355C9.75979 2.94732 9.63261 3 9.5 3C9.36739 3 9.24021 2.94732 9.14645 2.85355C9.05268 2.75979 9 2.63261 9 2.5C9 2.36739 9.05268 2.24021 9.14645 2.14645C9.24021 2.05268 9.36739 2 9.5 2C9.63261 2 9.75979 2.05268 9.85355 2.14645C9.94732 2.24021 10 2.36739 10 2.5ZM10 13.5C10 13.6326 9.94732 13.7598 9.85355 13.8536C9.75979 13.9473 9.63261 14 9.5 14C9.36739 14 9.24021 13.9473 9.14645 13.8536C9.05268 13.7598 9 13.6326 9 13.5C9 13.3674 9.05268 13.2402 9.14645 13.1464C9.24021 13.0527 9.36739 13 9.5 13C9.63261 13 9.75979 13.0527 9.85355 13.1464C9.94732 13.2402 10 13.3674 10 13.5ZM2.5 14C2.63261 14 2.75979 13.9473 2.85355 13.8536C2.94732 13.7598 3 13.6326 3 13.5C3 13.3674 2.94732 13.2402 2.85355 13.1464C2.75979 13.0527 2.63261 13 2.5 13C2.36739 13 2.24021 13.0527 2.14645 13.1464C2.05268 13.2402 2 13.3674 2 13.5C2 13.6326 2.05268 13.7598 2.14645 13.8536C2.24021 13.9473 2.36739 14 2.5 14ZM3 2.5C3 2.63261 2.94732 2.75979 2.85355 2.85355C2.75979 2.94732 2.63261 3 2.5 3C2.36739 3 2.24021 2.94732 2.14645 2.85355C2.05268 2.75979 2 2.63261 2 2.5C2 2.36739 2.05268 2.24021 2.14645 2.14645C2.24021 2.05268 2.36739 2 2.5 2C2.63261 2 2.75979 2.05268 2.85355 2.14645C2.94732 2.24021 3 2.36739 3 2.5ZM6 8C6.26522 8 6.51957 7.89464 6.70711 7.70711C6.89464 7.51957 7 7.26522 7 7C7 6.73478 6.89464 6.48043 6.70711 6.29289C6.51957 6.10536 6.26522 6 6 6C5.73478 6 5.48043 6.10536 5.29289 6.29289C5.10536 6.48043 5 6.73478 5 7C5 7.26522 5.10536 7.51957 5.29289 7.70711C5.48043 7.89464 5.73478 8 6 8Z" fill="black"/>
<path d="M10 7C10.0002 8.05004 9.58741 9.05802 8.85083 9.80638C8.11426 10.5547 7.11295 10.9835 6.06304 11C5.52604 11.813 5.04304 12.515 4.88204 12.677C4.67531 12.8839 4.39486 13.0001 4.1024 13.0002C3.80994 13.0003 3.52941 12.8842 3.32254 12.6775C3.11568 12.4708 2.99941 12.1903 2.99931 11.8979C2.99922 11.6054 3.11531 11.3249 3.32204 11.118C3.42204 11.02 3.71804 10.804 4.11704 10.53C3.32957 10.1103 2.70504 9.43941 2.34277 8.62394C1.98051 7.80846 1.90131 6.89528 2.11778 6.02961C2.33426 5.16395 2.83397 4.39553 3.53743 3.84656C4.2409 3.2976 5.10773 2.99961 6.00004 3C7.06091 3 8.07833 3.42143 8.82847 4.17157C9.57862 4.92172 10 5.93913 10 7ZM9.00004 7C8.99998 6.44514 8.84603 5.90117 8.55532 5.42857C8.26461 4.95596 7.84853 4.57324 7.35334 4.32294C6.85814 4.07265 6.30323 3.96459 5.7503 4.01078C5.19737 4.05697 4.66808 4.2556 4.22127 4.58459C3.77447 4.91358 3.42766 5.36004 3.21939 5.87432C3.01113 6.38861 2.94957 6.95059 3.04157 7.49776C3.13356 8.04494 3.3755 8.55589 3.74049 8.9738C4.10548 9.39171 4.57922 9.70021 5.10904 9.865C5.77604 9.425 6.50504 8.955 7.06404 8.597C7.28804 8.453 7.54704 8.712 7.40404 8.937L6.78404 9.897C7.42033 9.72456 7.98213 9.3474 8.38266 8.82378C8.78318 8.30017 9.00015 7.65924 9.00004 7Z" fill="black"/>
<path d="M0 2C0 1.46957 0.210714 0.960859 0.585786 0.585786C0.960859 0.210714 1.46957 0 2 0L10 0C10.5304 0 11.0391 0.210714 11.4142 0.585786C11.7893 0.960859 12 1.46957 12 2V14C12 14.5304 11.7893 15.0391 11.4142 15.4142C11.0391 15.7893 10.5304 16 10 16H2C1.46957 16 0.960859 15.7893 0.585786 15.4142C0.210714 15.0391 0 14.5304 0 14V2ZM2 1C1.73478 1 1.48043 1.10536 1.29289 1.29289C1.10536 1.48043 1 1.73478 1 2V14C1 14.2652 1.10536 14.5196 1.29289 14.7071C1.48043 14.8946 1.73478 15 2 15H10C10.2652 15 10.5196 14.8946 10.7071 14.7071C10.8946 14.5196 11 14.2652 11 14V2C11 1.73478 10.8946 1.48043 10.7071 1.29289C10.5196 1.10536 10.2652 1 10 1H2Z" fill="black"/>
</svg>
