<svg width="14" height="14" viewBox="0 0 14 14" fill="none" xmlns="http://www.w3.org/2000/svg">
<path d="M10.0625 1.75C10.1785 1.75 10.2898 1.79609 10.3719 1.87814C10.4539 1.96019 10.5 2.07147 10.5 2.1875V8.3125C10.5 8.42853 10.4539 8.53981 10.3719 8.62186C10.2898 8.70391 10.1785 8.75 10.0625 8.75C9.94647 8.75 9.83519 8.70391 9.75314 8.62186C9.67109 8.53981 9.625 8.42853 9.625 8.3125V2.1875C9.625 2.07147 9.67109 1.96019 9.75314 1.87814C9.83519 1.79609 9.94647 1.75 10.0625 1.75ZM11.8125 1.75C11.9285 1.75 12.0398 1.79609 12.1219 1.87814C12.2039 1.96019 12.25 2.07147 12.25 2.1875V8.3125C12.25 8.42853 12.2039 8.53981 12.1219 8.62186C12.0398 8.70391 11.9285 8.75 11.8125 8.75C11.6965 8.75 11.5852 8.70391 11.5031 8.62186C11.4211 8.53981 11.375 8.42853 11.375 8.3125V2.1875C11.375 2.07147 11.4211 1.96019 11.5031 1.87814C11.5852 1.79609 11.6965 1.75 11.8125 1.75ZM3.0625 8.75C2.94647 8.75 2.83519 8.79609 2.75314 8.87814C2.67109 8.96019 2.625 9.07147 2.625 9.1875C2.625 9.30353 2.67109 9.41481 2.75314 9.49686C2.83519 9.57891 2.94647 9.625 3.0625 9.625H8.3125C8.42853 9.625 8.53981 9.57891 8.62186 9.49686C8.70391 9.41481 8.75 9.30353 8.75 9.1875C8.75 9.07147 8.70391 8.96019 8.62186 8.87814C8.53981 8.79609 8.42853 8.75 8.3125 8.75H3.0625ZM3.0625 10.5C2.94647 10.5 2.83519 10.5461 2.75314 10.6281C2.67109 10.7102 2.625 10.8215 2.625 10.9375C2.625 11.0535 2.67109 11.1648 2.75314 11.2469C2.83519 11.3289 2.94647 11.375 3.0625 11.375H8.3125C8.42853 11.375 8.53981 11.3289 8.62186 11.2469C8.70391 11.1648 8.75 11.0535 8.75 10.9375C8.75 10.8215 8.70391 10.7102 8.62186 10.6281C8.53981 10.5461 8.42853 10.5 8.3125 10.5H3.0625ZM4.375 2.625C4.14294 2.625 3.92038 2.71719 3.75628 2.88128C3.59219 3.04538 3.5 3.26794 3.5 3.5H3.0625C2.94647 3.5 2.83519 3.54609 2.75314 3.62814C2.67109 3.71019 2.625 3.82147 2.625 3.9375C2.625 4.05353 2.67109 4.16481 2.75314 4.24686C2.83519 4.32891 2.94647 4.375 3.0625 4.375H3.5V5.25H3.0625C2.94647 5.25 2.83519 5.29609 2.75314 5.37814C2.67109 5.46019 2.625 5.57147 2.625 5.6875C2.625 5.80353 2.67109 5.91481 2.75314 5.99686C2.83519 6.07891 2.94647 6.125 3.0625 6.125H3.5C3.5 6.35706 3.59219 6.57962 3.75628 6.74372C3.92038 6.90781 4.14294 7 4.375 7V7.4375C4.375 7.55353 4.42109 7.66481 4.50314 7.74686C4.58519 7.82891 4.69647 7.875 4.8125 7.875C4.92853 7.875 5.03981 7.82891 5.12186 7.74686C5.20391 7.66481 5.25 7.55353 5.25 7.4375V7H6.125V7.4375C6.125 7.55353 6.17109 7.66481 6.25314 7.74686C6.33519 7.82891 6.44647 7.875 6.5625 7.875C6.67853 7.875 6.78981 7.82891 6.87186 7.74686C6.95391 7.66481 7 7.55353 7 7.4375V7C7.23206 7 7.45462 6.90781 7.61872 6.74372C7.78281 6.57962 7.875 6.35706 7.875 6.125H8.3125C8.42853 6.125 8.53981 6.07891 8.62186 5.99686C8.70391 5.91481 8.75 5.80353 8.75 5.6875C8.75 5.57147 8.70391 5.46019 8.62186 5.37814C8.53981 5.29609 8.42853 5.25 8.3125 5.25H7.875V4.375H8.3125C8.42853 4.375 8.53981 4.32891 8.62186 4.24686C8.70391 4.16481 8.75 4.05353 8.75 3.9375C8.75 3.82147 8.70391 3.71019 8.62186 3.62814C8.53981 3.54609 8.42853 3.5 8.3125 3.5H7.875C7.875 3.26794 7.78281 3.04538 7.61872 2.88128C7.45462 2.71719 7.23206 2.625 7 2.625V2.1875C7 2.07147 6.95391 1.96019 6.87186 1.87814C6.78981 1.79609 6.67853 1.75 6.5625 1.75C6.44647 1.75 6.33519 1.79609 6.25314 1.87814C6.17109 1.96019 6.125 2.07147 6.125 2.1875V2.625H5.25V2.1875C5.25 2.07147 5.20391 1.96019 5.12186 1.87814C5.03981 1.79609 4.92853 1.75 4.8125 1.75C4.69647 1.75 4.58519 1.79609 4.50314 1.87814C4.42109 1.96019 4.375 2.07147 4.375 2.1875V2.625ZM4.375 3.5H7V6.125H4.375V3.5ZM10.0625 9.625C9.94647 9.625 9.83519 9.67109 9.75314 9.75314C9.67109 9.83519 9.625 9.94647 9.625 10.0625V10.9375C9.625 11.0535 9.67109 11.1648 9.75314 11.2469C9.83519 11.3289 9.94647 11.375 10.0625 11.375H11.8125C11.9285 11.375 12.0398 11.3289 12.1219 11.2469C12.2039 11.1648 12.25 11.0535 12.25 10.9375V10.0625C12.25 9.94647 12.2039 9.83519 12.1219 9.75314C12.0398 9.67109 11.9285 9.625 11.8125 9.625H10.0625Z" fill="black"/>
<path d="M0.875 1.75C0.875 1.28587 1.05937 0.840752 1.38756 0.512563C1.71575 0.184375 2.16087 0 2.625 0L12.25 0C12.7141 0 13.1592 0.184375 13.4874 0.512563C13.8156 0.840752 14 1.28587 14 1.75V11.375C14 11.8391 13.8156 12.2842 13.4874 12.6124C13.1592 12.9406 12.7141 13.125 12.25 13.125H2.625C2.16087 13.125 1.71575 12.9406 1.38756 12.6124C1.05937 12.2842 0.875 11.8391 0.875 11.375V9.625H0.4375C0.321468 9.625 0.210188 9.57891 0.128141 9.49686C0.0460936 9.41481 0 9.30353 0 9.1875V8.3125C0 8.19647 0.0460936 8.08519 0.128141 8.00314C0.210188 7.92109 0.321468 7.875 0.4375 7.875H0.875V7H0.4375C0.321468 7 0.210188 6.95391 0.128141 6.87186C0.0460936 6.78981 0 6.67853 0 6.5625V5.6875C0 5.57147 0.0460936 5.46019 0.128141 5.37814C0.210188 5.29609 0.321468 5.25 0.4375 5.25H0.875V4.375H0.4375C0.321468 4.375 0.210188 4.32891 0.128141 4.24686C0.0460936 4.16481 0 4.05353 0 3.9375V2.1875C0 2.07147 0.0460936 1.96019 0.128141 1.87814C0.210188 1.79609 0.321468 1.75 0.4375 1.75H0.875ZM1.75 11.375C1.75 11.6071 1.84219 11.8296 2.00628 11.9937C2.17038 12.1578 2.39294 12.25 2.625 12.25H12.25C12.4821 12.25 12.7046 12.1578 12.8687 11.9937C13.0328 11.8296 13.125 11.6071 13.125 11.375V1.75C13.125 1.51794 13.0328 1.29538 12.8687 1.13128C12.7046 0.967187 12.4821 0.875 12.25 0.875H2.625C2.39294 0.875 2.17038 0.967187 2.00628 1.13128C1.84219 1.29538 1.75 1.51794 1.75 1.75V11.375Z" fill="black"/>
</svg>
