<svg width="14" height="13" viewBox="0 0 14 13" fill="none" xmlns="http://www.w3.org/2000/svg">
<path d="M8.27273 10.3823C7.57471 10.0498 6.97467 9.54227 6.531 8.90909H1.27273V1.27273H12.7273V2.71345C13.2429 3.07507 13.6765 3.54125 14 4.08164V1.27273C13.999 0.935489 13.8646 0.61235 13.6261 0.373886C13.3876 0.135421 13.0645 0.00100719 12.7273 0H1.27273C0.935489 0.00100719 0.61235 0.135421 0.373886 0.373886C0.135421 0.61235 0.00100719 0.935489 0 1.27273V8.90909C0.00100719 9.24633 0.135421 9.56947 0.373886 9.80793C0.61235 10.0464 0.935489 10.1808 1.27273 10.1818H5.72727V11.4545H4.45454V12.7273H9.54545V11.4545H8.27273V10.3823Z" fill="black"/>
<path d="M10.1817 2.5459C9.42654 2.5459 8.68834 2.76983 8.06044 3.18938C7.43254 3.60893 6.94316 4.20524 6.65417 4.90293C6.36518 5.60061 6.28957 6.36832 6.43689 7.10897C6.58422 7.84962 6.94786 8.52996 7.48185 9.06394C8.01583 9.59792 8.69616 9.96157 9.43682 10.1089C10.1775 10.2562 10.9452 10.1806 11.6429 9.89162C12.3405 9.60263 12.9369 9.11324 13.3564 8.48535C13.776 7.85745 13.9999 7.11925 13.9999 6.36408C14.0001 5.86262 13.9014 5.36605 13.7096 4.90273C13.5178 4.43941 13.2365 4.01843 12.8819 3.66384C12.5274 3.30926 12.1064 3.02802 11.6431 2.8362C11.1797 2.64438 10.6832 2.54573 10.1817 2.5459ZM10.1817 8.90953C9.67826 8.90953 9.18613 8.76025 8.76753 8.48055C8.34893 8.20085 8.02267 7.8033 7.83001 7.33818C7.63736 6.87306 7.58695 6.36126 7.68516 5.86749C7.78338 5.37372 8.02581 4.92016 8.3818 4.56417C8.73779 4.20818 9.19134 3.96575 9.68511 3.86754C10.1789 3.76932 10.6907 3.81973 11.1558 4.01239C11.6209 4.20505 12.0185 4.5313 12.2982 4.9499C12.5779 5.3685 12.7272 5.86064 12.7272 6.36408C12.7263 7.03892 12.4579 7.68587 11.9807 8.16306C11.5035 8.64024 10.8565 8.90869 10.1817 8.90953Z" fill="black"/>
<path d="M10.1818 7.00027C10.5332 7.00027 10.8181 6.71536 10.8181 6.3639C10.8181 6.01245 10.5332 5.72754 10.1818 5.72754C9.83032 5.72754 9.54541 6.01245 9.54541 6.3639C9.54541 6.71536 9.83032 7.00027 10.1818 7.00027Z" fill="black"/>
</svg>
