<svg width="9" height="7" viewBox="0 0 9 7" fill="none" xmlns="http://www.w3.org/2000/svg">
<mask id="path-1-inside-1_243_69" fill="white">
<rect y="1.08594" width="9" height="4.03448" rx="0.692308"/>
</mask>
<rect y="1.08594" width="9" height="4.03448" rx="0.692308" stroke="black" stroke-width="1.4" mask="url(#path-1-inside-1_243_69)"/>
<path d="M7.91382 5.89571C7.91382 6.06711 7.77487 6.20605 7.60347 6.20605V6.20605C7.43207 6.20605 7.29313 6.06711 7.29313 5.89571L7.29313 4.96468L7.91382 4.96468L7.91382 5.89571Z" fill="black"/>
<path d="M6.36206 5.89571C6.36206 6.06711 6.22311 6.20605 6.05172 6.20605V6.20605C5.88032 6.20605 5.74137 6.06711 5.74137 5.89571L5.74137 4.96468L6.36206 4.96468L6.36206 5.89571Z" fill="black"/>
<path d="M4.8103 5.89571C4.8103 6.06711 4.67136 6.20605 4.49996 6.20605V6.20605C4.32856 6.20605 4.18961 6.06711 4.18961 5.89571L4.18961 4.96468L4.8103 4.96468L4.8103 5.89571Z" fill="black"/>
<path d="M3.25854 5.89571C3.25854 6.06711 3.1196 6.20605 2.9482 6.20605V6.20605C2.7768 6.20605 2.63786 6.06711 2.63786 5.89571L2.63786 4.96468L3.25855 4.96468L3.25854 5.89571Z" fill="black"/>
<path d="M1.70679 5.89571C1.70679 6.06711 1.56784 6.20605 1.39644 6.20605V6.20605C1.22504 6.20605 1.0861 6.06711 1.0861 5.89571L1.0861 4.96468L1.70679 4.96468L1.70679 5.89571Z" fill="black"/>
<path d="M1.08618 0.310345C1.08618 0.138946 1.22513 2.21725e-08 1.39653 4.95236e-08V4.95236e-08C1.56793 7.68747e-08 1.70687 0.138946 1.70687 0.310345L1.70687 1.24138L1.08618 1.24138L1.08618 0.310345Z" fill="black"/>
<path d="M2.63794 0.310345C2.63794 0.138946 2.77689 2.21725e-08 2.94828 4.95236e-08V4.95236e-08C3.11968 7.68747e-08 3.25863 0.138946 3.25863 0.310345L3.25863 1.24138L2.63794 1.24138L2.63794 0.310345Z" fill="black"/>
<path d="M4.1897 0.310345C4.1897 0.138946 4.32864 2.21725e-08 4.50004 4.95236e-08V4.95236e-08C4.67144 7.68747e-08 4.81039 0.138946 4.81039 0.310345L4.81039 1.24138L4.1897 1.24138L4.1897 0.310345Z" fill="black"/>
<path d="M5.74146 0.310345C5.74146 0.138946 5.8804 2.21725e-08 6.0518 4.95236e-08V4.95236e-08C6.2232 7.68747e-08 6.36214 0.138946 6.36214 0.310345L6.36214 1.24138L5.74145 1.24138L5.74146 0.310345Z" fill="black"/>
<path d="M7.29321 0.310345C7.29321 0.138946 7.43216 2.21725e-08 7.60356 4.95236e-08V4.95236e-08C7.77496 7.68747e-08 7.9139 0.138946 7.9139 0.310345L7.9139 1.24138L7.29321 1.24138L7.29321 0.310345Z" fill="black"/>
</svg>
