<svg width="12" height="9" viewBox="0 0 12 9" fill="none" xmlns="http://www.w3.org/2000/svg">
<path d="M11.25 0H0.75C0.551088 0 0.360322 0.0790176 0.21967 0.21967C0.0790176 0.360322 0 0.551088 0 0.75V8.25C0 8.44891 0.0790176 8.63968 0.21967 8.78033C0.360322 8.92098 0.551088 9 0.75 9H11.25C11.4489 9 11.6397 8.92098 11.7803 8.78033C11.921 8.63968 12 8.44891 12 8.25V0.75C12 0.551088 11.921 0.360322 11.7803 0.21967C11.6397 0.0790176 11.4489 0 11.25 0ZM11.25 8.25H0.75V0.75H11.25V8.25Z" fill="black"/>
<path d="M1.57886 2.0625C1.83774 2.0625 2.04761 1.85263 2.04761 1.59375C2.04761 1.33487 1.83774 1.125 1.57886 1.125C1.31997 1.125 1.11011 1.33487 1.11011 1.59375C1.11011 1.85263 1.31997 2.0625 1.57886 2.0625Z" fill="black"/>
<path d="M10.4287 2.0625C10.6876 2.0625 10.8975 1.85263 10.8975 1.59375C10.8975 1.33487 10.6876 1.125 10.4287 1.125C10.1698 1.125 9.95996 1.33487 9.95996 1.59375C9.95996 1.85263 10.1698 2.0625 10.4287 2.0625Z" fill="black"/>
<path d="M1.57886 7.75195C1.83774 7.75195 2.04761 7.54209 2.04761 7.2832C2.04761 7.02432 1.83774 6.81445 1.57886 6.81445C1.31997 6.81445 1.11011 7.02432 1.11011 7.2832C1.11011 7.54209 1.31997 7.75195 1.57886 7.75195Z" fill="black"/>
<path d="M10.4287 7.75195C10.6876 7.75195 10.8975 7.54209 10.8975 7.2832C10.8975 7.02432 10.6876 6.81445 10.4287 6.81445C10.1698 6.81445 9.95996 7.02432 9.95996 7.2832C9.95996 7.54209 10.1698 7.75195 10.4287 7.75195Z" fill="black"/>
</svg>
