<svg width="115" height="24" viewBox="0 0 115 24" fill="none" xmlns="http://www.w3.org/2000/svg">
<path d="M0.672 10.328C0.672 9 0.944 7.816 1.488 6.776C2.048 5.736 2.792 4.928 3.72 4.352C4.664 3.76 5.688 3.464 6.792 3.464C7.64 3.464 8.4 3.616 9.072 3.92C9.744 4.208 10.288 4.616 10.704 5.144V3.608H14.808V23.384H10.704V15.32C10.24 15.88 9.672 16.328 9 16.664C8.344 17 7.592 17.168 6.744 17.168C5.656 17.168 4.648 16.88 3.72 16.304C2.792 15.728 2.048 14.92 1.488 13.88C0.944 12.84 0.672 11.656 0.672 10.328ZM10.704 10.304C10.704 9.584 10.56 8.984 10.272 8.504C10 8.008 9.64 7.64 9.192 7.4C8.744 7.144 8.272 7.016 7.776 7.016C7.296 7.016 6.832 7.144 6.384 7.4C5.936 7.64 5.568 8.008 5.28 8.504C4.992 9 4.848 9.608 4.848 10.328C4.848 11.048 4.992 11.656 5.28 12.152C5.568 12.632 5.936 13 6.384 13.256C6.832 13.496 7.296 13.616 7.776 13.616C8.256 13.616 8.72 13.496 9.168 13.256C9.632 13 10 12.624 10.272 12.128C10.56 11.632 10.704 11.024 10.704 10.304ZM31.0011 3.608V17H26.8971V15.176C26.4811 15.768 25.9131 16.248 25.1931 16.616C24.4891 16.968 23.7051 17.144 22.8411 17.144C21.8171 17.144 20.9131 16.92 20.1291 16.472C19.3451 16.008 18.7371 15.344 18.3051 14.48C17.8731 13.616 17.6571 12.6 17.6571 11.432V3.608H21.7371V10.88C21.7371 11.776 21.9691 12.472 22.4331 12.968C22.8971 13.464 23.5211 13.712 24.3051 13.712C25.1051 13.712 25.7371 13.464 26.2011 12.968C26.6651 12.472 26.8971 11.776 26.8971 10.88V3.608H31.0011ZM33.1329 10.28C33.1329 8.904 33.3889 7.696 33.9009 6.656C34.4289 5.616 35.1409 4.816 36.0369 4.256C36.9329 3.696 37.9329 3.416 39.0369 3.416C39.9809 3.416 40.8049 3.608 41.5089 3.992C42.2289 4.376 42.7809 4.88 43.1649 5.504V3.608H47.2689V17H43.1649V15.104C42.7649 15.728 42.2049 16.232 41.4849 16.616C40.7809 17 39.9569 17.192 39.0129 17.192C37.9249 17.192 36.9329 16.912 36.0369 16.352C35.1409 15.776 34.4289 14.968 33.9009 13.928C33.3889 12.872 33.1329 11.656 33.1329 10.28ZM43.1649 10.304C43.1649 9.28 42.8769 8.472 42.3009 7.88C41.7409 7.288 41.0529 6.992 40.2369 6.992C39.4209 6.992 38.7249 7.288 38.1489 7.88C37.5889 8.456 37.3089 9.256 37.3089 10.28C37.3089 11.304 37.5889 12.12 38.1489 12.728C38.7249 13.32 39.4209 13.616 40.2369 13.616C41.0529 13.616 41.7409 13.32 42.3009 12.728C42.8769 12.136 43.1649 11.328 43.1649 10.304ZM58.398 3.464C59.966 3.464 61.214 3.976 62.142 5C63.086 6.008 63.558 7.4 63.558 9.176V17H59.478V9.728C59.478 8.832 59.246 8.136 58.782 7.64C58.318 7.144 57.694 6.896 56.91 6.896C56.126 6.896 55.502 7.144 55.038 7.64C54.574 8.136 54.342 8.832 54.342 9.728V17H50.238V3.608H54.342V5.384C54.758 4.792 55.318 4.328 56.022 3.992C56.726 3.64 57.518 3.464 58.398 3.464ZM73.8739 13.52V17H71.7859C70.2979 17 69.1379 16.64 68.3059 15.92C67.4739 15.184 67.0579 13.992 67.0579 12.344V7.016H65.4259V3.608H67.0579V0.344H71.1619V3.608H73.8499V7.016H71.1619V12.392C71.1619 12.792 71.2579 13.08 71.4499 13.256C71.6419 13.432 71.9619 13.52 72.4099 13.52H73.8739ZM89.3839 3.608V17H85.2799V15.176C84.8639 15.768 84.2959 16.248 83.5759 16.616C82.8719 16.968 82.0879 17.144 81.2239 17.144C80.1999 17.144 79.2959 16.92 78.5119 16.472C77.7279 16.008 77.1199 15.344 76.6879 14.48C76.2559 13.616 76.0399 12.6 76.0399 11.432V3.608H80.1199V10.88C80.1199 11.776 80.3519 12.472 80.8159 12.968C81.2799 13.464 81.9039 13.712 82.6879 13.712C83.4879 13.712 84.1199 13.464 84.5839 12.968C85.0479 12.472 85.2799 11.776 85.2799 10.88V3.608H89.3839ZM109.42 3.464C111.084 3.464 112.404 3.968 113.38 4.976C114.372 5.984 114.868 7.384 114.868 9.176V17H110.788V9.728C110.788 8.864 110.556 8.2 110.092 7.736C109.644 7.256 109.02 7.016 108.22 7.016C107.42 7.016 106.788 7.256 106.324 7.736C105.876 8.2 105.652 8.864 105.652 9.728V17H101.572V9.728C101.572 8.864 101.34 8.2 100.876 7.736C100.428 7.256 99.8038 7.016 99.0038 7.016C98.2038 7.016 97.5718 7.256 97.1078 7.736C96.6598 8.2 96.4358 8.864 96.4358 9.728V17H92.3318V3.608H96.4358V5.288C96.8518 4.728 97.3958 4.288 98.0678 3.968C98.7398 3.632 99.4998 3.464 100.348 3.464C101.356 3.464 102.252 3.68 103.036 4.112C103.836 4.544 104.46 5.16 104.908 5.96C105.372 5.224 106.004 4.624 106.804 4.16C107.604 3.696 108.476 3.464 109.42 3.464Z" fill="white"/>
</svg>
